<svg width="15" height="14" viewBox="0 0 15 14" fill="none" xmlns="http://www.w3.org/2000/svg">
<g clip-path="url(#clip0_114_180)">
<path d="M13.297 6.5625C13.297 6.1075 13.2555 5.67 13.1785 5.25H7.03821V7.735H10.5469C10.3928 8.53417 9.93054 9.21083 9.23709 9.66583V11.2817H11.353C12.5858 10.1617 13.297 8.51667 13.297 6.5625Z" fill="#4285F4"/>
<path d="M7.03825 12.8335C8.79854 12.8335 10.2743 12.2618 11.353 11.2818L9.23713 9.66601C8.6563 10.051 7.91543 10.2843 7.03825 10.2843C5.34315 10.2843 3.90291 9.15851 3.38727 7.64185H1.21802V9.29851C2.29079 11.3927 4.48967 12.8335 7.03825 12.8335Z" fill="#34A853"/>
<path d="M3.3873 7.63577C3.25691 7.25077 3.17986 6.84244 3.17986 6.4166C3.17986 5.99077 3.25691 5.58244 3.3873 5.19744V3.54077H1.21805C0.773534 4.4041 0.518677 5.37827 0.518677 6.4166C0.518677 7.45494 0.773534 8.4291 1.21805 9.29244L2.90722 7.99744L3.3873 7.63577Z" fill="#FBBC05"/>
<path d="M7.03825 2.555C7.99841 2.555 8.85188 2.88167 9.53348 3.51167L11.4005 1.67417C10.2684 0.635833 8.79854 0 7.03825 0C4.48967 0 2.29079 1.44083 1.21802 3.54083L3.38727 5.1975C3.90291 3.68083 5.34315 2.555 7.03825 2.555Z" fill="#EA4335"/>
</g>
<defs>
<clipPath id="clip0_114_180">
<rect width="14.2246" height="14" fill="white" transform="translate(0.518677)"/>
</clipPath>
</defs>
</svg>
